<svg xmlns="http://www.w3.org/2000/svg" xmlns:xlink="http://www.w3.org/1999/xlink" width="38.771" height="38.772" viewBox="0 0 38.771 38.772"><defs><linearGradient id="a" x1="0.938" x2="0.237" y2="1" gradientUnits="objectBoundingBox"><stop offset="0" stop-color="#c3434b"/><stop offset="1" stop-color="#e07b67"/></linearGradient><filter id="b" x="0" y="0" width="38.771" height="38.772" filterUnits="userSpaceOnUse"><feOffset dy="3" input="SourceAlpha"/><feGaussianBlur stdDeviation="3" result="c"/><feFlood flood-opacity="0.161"/><feComposite operator="in" in2="c"/><feComposite in="SourceGraphic"/></filter><filter id="d" x="0" y="0" width="38.771" height="38.772" filterUnits="userSpaceOnUse"><feOffset dy="3" input="SourceAlpha"/><feGaussianBlur stdDeviation="3" result="e"/><feFlood flood-opacity="0.161" result="f"/><feComposite operator="out" in="SourceGraphic" in2="e"/><feComposite operator="in" in="f"/><feComposite operator="in" in2="SourceGraphic"/></filter></defs><g transform="translate(0.886 3.886)"><path d="M0,1.473V27.108H7.418v7.418l11.564-7.417H36V1.473Z" transform="translate(0 -1.473)" fill="url(#a)"/><g data-type="innerShadowGroup"><g transform="matrix(1, 0, 0, 1, -0.89, -3.89)" filter="url(#b)"><path d="M20.484,17.273l-2.929,2.905a2.119,2.119,0,0,1-1.563.594,13.545,13.545,0,0,1-6.716-2.531A25.9,25.9,0,0,1,1.437,9.691,11.063,11.063,0,0,1,.005,4.816,2.133,2.133,0,0,1,.6,3.231L3.528.3A.969.969,0,0,1,5.114.568L7.47,5.036a1.3,1.3,0,0,1-.264,1.475L6.127,7.589a.532.532,0,0,0-.11.308,9.2,9.2,0,0,0,2.774,4.094c1.107,1.016,2.3,2.392,3.842,2.718a.608.608,0,0,0,.561-.055l1.255-1.276a1.433,1.433,0,0,1,1.519-.22h.022l4.25,2.509a1.023,1.023,0,0,1,.242,1.606Z" transform="translate(9 6)" fill="#fff"/></g><g transform="matrix(1, 0, 0, 1, -0.89, -3.89)" filter="url(#d)"><path d="M20.484,17.273l-2.929,2.905a2.119,2.119,0,0,1-1.563.594,13.545,13.545,0,0,1-6.716-2.531A25.9,25.9,0,0,1,1.437,9.691,11.063,11.063,0,0,1,.005,4.816,2.133,2.133,0,0,1,.6,3.231L3.528.3A.969.969,0,0,1,5.114.568L7.47,5.036a1.3,1.3,0,0,1-.264,1.475L6.127,7.589a.532.532,0,0,0-.11.308,9.2,9.2,0,0,0,2.774,4.094c1.107,1.016,2.3,2.392,3.842,2.718a.608.608,0,0,0,.561-.055l1.255-1.276a1.433,1.433,0,0,1,1.519-.22h.022l4.25,2.509a1.023,1.023,0,0,1,.242,1.606Z" transform="translate(9 6)" fill="#fff"/></g></g></g></svg>