<svg xmlns="http://www.w3.org/2000/svg" xmlns:xlink="http://www.w3.org/1999/xlink" width="56.25" height="57.5" viewBox="0 0 56.25 57.5"><defs><linearGradient id="a" x1="0.951" y1="0.562" x2="0.026" y2="0.987" gradientUnits="objectBoundingBox"><stop offset="0" stop-color="#e07b67"/><stop offset="1" stop-color="#c5484e"/></linearGradient><filter id="b" x="0" y="0" width="56.25" height="48.208" filterUnits="userSpaceOnUse"><feOffset dy="3" input="SourceAlpha"/><feGaussianBlur stdDeviation="3" result="c"/><feFlood flood-opacity="0.161"/><feComposite operator="in" in2="c"/><feComposite in="SourceGraphic"/></filter><filter id="d" x="0" y="0" width="56.25" height="48.208" filterUnits="userSpaceOnUse"><feOffset dy="3" input="SourceAlpha"/><feGaussianBlur stdDeviation="3" result="e"/><feFlood flood-opacity="0.161" result="f"/><feComposite operator="out" in="SourceGraphic" in2="e"/><feComposite operator="in" in="f"/><feComposite operator="in" in2="SourceGraphic"/></filter></defs><g transform="translate(8.125 6)"><g transform="translate(-50.25 -148.792)"><g data-type="innerShadowGroup"><g transform="matrix(1, 0, 0, 1, 42.13, 142.79)" filter="url(#b)"><path d="M15.1,6.792ZM37.54,23.07a2.112,2.112,0,0,0-2.834,0l-6.131,5.2a4.089,4.089,0,0,1-2.658.984H18.063a1.127,1.127,0,0,1,0-2.25h5.2a2.252,2.252,0,0,0,.113-4.5H12.748a7.518,7.518,0,0,0-4.915,1.849L4.746,27H1.062A1.1,1.1,0,0,0,0,28.125v6.75A1.1,1.1,0,0,0,1.062,36H24.75a4.117,4.117,0,0,0,2.658-.984l10.041-8.508a2.336,2.336,0,0,0,.091-3.438Z" transform="translate(9 0.21)" fill="url(#a)"/></g><g transform="matrix(1, 0, 0, 1, 42.13, 142.79)" filter="url(#d)"><path d="M15.1,6.792ZM37.54,23.07a2.112,2.112,0,0,0-2.834,0l-6.131,5.2a4.089,4.089,0,0,1-2.658.984H18.063a1.127,1.127,0,0,1,0-2.25h5.2a2.252,2.252,0,0,0,.113-4.5H12.748a7.518,7.518,0,0,0-4.915,1.849L4.746,27H1.062A1.1,1.1,0,0,0,0,28.125v6.75A1.1,1.1,0,0,0,1.062,36H24.75a4.117,4.117,0,0,0,2.658-.984l10.041-8.508a2.336,2.336,0,0,0,.091-3.438Z" transform="translate(9 0.21)" fill="#fff"/></g></g><g transform="translate(71 161)" fill="#fe6703" stroke="#fe6703" stroke-width="1"><circle cx="1.5" cy="1.5" r="1.5" stroke="none"/><circle cx="1.5" cy="1.5" r="1" fill="none"/></g><g transform="translate(69 158)" fill="#fe6703" stroke="#fe6703" stroke-width="1"><circle cx="1.5" cy="1.5" r="1.5" stroke="none"/><circle cx="1.5" cy="1.5" r="1" fill="none"/></g><g transform="translate(67 162)" fill="#fe6703" stroke="#fe6703" stroke-width="1"><circle cx="1.5" cy="1.5" r="1.5" stroke="none"/><circle cx="1.5" cy="1.5" r="1" fill="none"/></g><g transform="translate(69 153)" fill="#fe6703" stroke="#fe6703" stroke-width="1"><circle cx="1" cy="1" r="1" stroke="none"/><circle cx="1" cy="1" r="0.5" fill="none"/></g><g transform="translate(71 155)" fill="#fe6703" stroke="#fe6703" stroke-width="1"><circle cx="1" cy="1" r="1" stroke="none"/><circle cx="1" cy="1" r="0.5" fill="none"/></g></g><text transform="translate(20 48.5)" font-size="12" font-family="Lato-Bold, Lato" font-weight="700"><tspan x="-20.178" y="0">Earning</tspan></text></g></svg>