<svg xmlns="http://www.w3.org/2000/svg" xmlns:xlink="http://www.w3.org/1999/xlink" width="39.749" height="42.515" viewBox="0 0 39.749 42.515"><defs><linearGradient id="a" x1="0.902" y1="0.071" x2="0.079" y2="1" gradientUnits="objectBoundingBox"><stop offset="0" stop-color="#c03e48"/><stop offset="1" stop-color="#ea806c"/></linearGradient><filter id="b" x="0" y="4.258" width="39.749" height="38.257" filterUnits="userSpaceOnUse"><feOffset dy="1" input="SourceAlpha"/><feGaussianBlur stdDeviation="1" result="c"/><feFlood flood-opacity="0.161"/><feComposite operator="in" in2="c"/><feComposite in="SourceGraphic"/></filter><filter id="d" x="0" y="4.258" width="39.749" height="38.257" filterUnits="userSpaceOnUse"><feOffset dy="1" input="SourceAlpha"/><feGaussianBlur stdDeviation="1" result="e"/><feFlood flood-opacity="0.161" result="f"/><feComposite operator="out" in="SourceGraphic" in2="e"/><feComposite operator="in" in="f"/><feComposite operator="in" in2="SourceGraphic"/></filter><filter id="g" x="7.209" y="0" width="25.331" height="23.721" filterUnits="userSpaceOnUse"><feOffset dy="1" input="SourceAlpha"/><feGaussianBlur stdDeviation="1" result="h"/><feFlood flood-opacity="0.161"/><feComposite operator="in" in2="h"/><feComposite in="SourceGraphic"/></filter><filter id="i" x="7.209" y="0" width="25.331" height="23.721" filterUnits="userSpaceOnUse"><feOffset dy="1" input="SourceAlpha"/><feGaussianBlur stdDeviation="1" result="j"/><feFlood flood-opacity="0.161" result="k"/><feComposite operator="out" in="SourceGraphic" in2="j"/><feComposite operator="in" in="k"/><feComposite operator="in" in2="SourceGraphic"/></filter><filter id="l" x="11.075" y="7.41" width="7.289" height="7.289" filterUnits="userSpaceOnUse"><feOffset dy="1" input="SourceAlpha"/><feGaussianBlur stdDeviation="1" result="m"/><feFlood flood-opacity="0.161"/><feComposite operator="in" in2="m"/><feComposite in="SourceGraphic"/></filter><filter id="n" x="11.075" y="7.41" width="7.289" height="7.289" filterUnits="userSpaceOnUse"><feOffset dy="1" input="SourceAlpha"/><feGaussianBlur stdDeviation="1" result="o"/><feFlood flood-opacity="0.161" result="p"/><feComposite operator="out" in="SourceGraphic" in2="o"/><feComposite operator="in" in="p"/><feComposite operator="in" in2="SourceGraphic"/></filter><filter id="q" x="14.619" y="7.41" width="7.289" height="7.289" filterUnits="userSpaceOnUse"><feOffset dy="1" input="SourceAlpha"/><feGaussianBlur stdDeviation="1" result="r"/><feFlood flood-opacity="0.161"/><feComposite operator="in" in2="r"/><feComposite in="SourceGraphic"/></filter><filter id="s" x="14.619" y="7.41" width="7.289" height="7.289" filterUnits="userSpaceOnUse"><feOffset dy="1" input="SourceAlpha"/><feGaussianBlur stdDeviation="1" result="t"/><feFlood flood-opacity="0.161" result="u"/><feComposite operator="out" in="SourceGraphic" in2="t"/><feComposite operator="in" in="u"/><feComposite operator="in" in2="SourceGraphic"/></filter><filter id="v" x="17.841" y="7.41" width="7.289" height="7.289" filterUnits="userSpaceOnUse"><feOffset dy="1" input="SourceAlpha"/><feGaussianBlur stdDeviation="1" result="w"/><feFlood flood-opacity="0.161"/><feComposite operator="in" in2="w"/><feComposite in="SourceGraphic"/></filter><filter id="x" x="17.841" y="7.41" width="7.289" height="7.289" filterUnits="userSpaceOnUse"><feOffset dy="1" input="SourceAlpha"/><feGaussianBlur stdDeviation="1" result="y"/><feFlood flood-opacity="0.161" result="z"/><feComposite operator="out" in="SourceGraphic" in2="y"/><feComposite operator="in" in="z"/><feComposite operator="in" in2="SourceGraphic"/></filter><filter id="aa" x="11.075" y="10.31" width="7.289" height="7.289" filterUnits="userSpaceOnUse"><feOffset dy="1" input="SourceAlpha"/><feGaussianBlur stdDeviation="1" result="ab"/><feFlood flood-opacity="0.161"/><feComposite operator="in" in2="ab"/><feComposite in="SourceGraphic"/></filter><filter id="ac" x="11.075" y="10.31" width="7.289" height="7.289" filterUnits="userSpaceOnUse"><feOffset dy="1" input="SourceAlpha"/><feGaussianBlur stdDeviation="1" result="ad"/><feFlood flood-opacity="0.161" result="ae"/><feComposite operator="out" in="SourceGraphic" in2="ad"/><feComposite operator="in" in="ae"/><feComposite operator="in" in2="SourceGraphic"/></filter><filter id="af" x="14.619" y="10.31" width="7.289" height="7.289" filterUnits="userSpaceOnUse"><feOffset dy="1" input="SourceAlpha"/><feGaussianBlur stdDeviation="1" result="ag"/><feFlood flood-opacity="0.161"/><feComposite operator="in" in2="ag"/><feComposite in="SourceGraphic"/></filter><filter id="ah" x="14.619" y="10.31" width="7.289" height="7.289" filterUnits="userSpaceOnUse"><feOffset dy="1" input="SourceAlpha"/><feGaussianBlur stdDeviation="1" result="ai"/><feFlood flood-opacity="0.161" result="aj"/><feComposite operator="out" in="SourceGraphic" in2="ai"/><feComposite operator="in" in="aj"/><feComposite operator="in" in2="SourceGraphic"/></filter><filter id="ak" x="17.841" y="10.31" width="7.289" height="7.289" filterUnits="userSpaceOnUse"><feOffset dy="1" input="SourceAlpha"/><feGaussianBlur stdDeviation="1" result="al"/><feFlood flood-opacity="0.161"/><feComposite operator="in" in2="al"/><feComposite in="SourceGraphic"/></filter><filter id="am" x="17.841" y="10.31" width="7.289" height="7.289" filterUnits="userSpaceOnUse"><feOffset dy="1" input="SourceAlpha"/><feGaussianBlur stdDeviation="1" result="an"/><feFlood flood-opacity="0.161" result="ao"/><feComposite operator="out" in="SourceGraphic" in2="an"/><feComposite operator="in" in="ao"/><feComposite operator="in" in2="SourceGraphic"/></filter><filter id="ap" x="11.075" y="13.209" width="7.289" height="7.289" filterUnits="userSpaceOnUse"><feOffset dy="1" input="SourceAlpha"/><feGaussianBlur stdDeviation="1" result="aq"/><feFlood flood-opacity="0.161"/><feComposite operator="in" in2="aq"/><feComposite in="SourceGraphic"/></filter><filter id="ar" x="11.075" y="13.209" width="7.289" height="7.289" filterUnits="userSpaceOnUse"><feOffset dy="1" input="SourceAlpha"/><feGaussianBlur stdDeviation="1" result="as"/><feFlood flood-opacity="0.161" result="at"/><feComposite operator="out" in="SourceGraphic" in2="as"/><feComposite operator="in" in="at"/><feComposite operator="in" in2="SourceGraphic"/></filter><filter id="au" x="14.619" y="13.209" width="7.289" height="7.289" filterUnits="userSpaceOnUse"><feOffset dy="1" input="SourceAlpha"/><feGaussianBlur stdDeviation="1" result="av"/><feFlood flood-opacity="0.161"/><feComposite operator="in" in2="av"/><feComposite in="SourceGraphic"/></filter><filter id="aw" x="14.619" y="13.209" width="7.289" height="7.289" filterUnits="userSpaceOnUse"><feOffset dy="1" input="SourceAlpha"/><feGaussianBlur stdDeviation="1" result="ax"/><feFlood flood-opacity="0.161" result="ay"/><feComposite operator="out" in="SourceGraphic" in2="ax"/><feComposite operator="in" in="ay"/><feComposite operator="in" in2="SourceGraphic"/></filter><filter id="az" x="17.841" y="13.209" width="7.289" height="7.289" filterUnits="userSpaceOnUse"><feOffset dy="1" input="SourceAlpha"/><feGaussianBlur stdDeviation="1" result="ba"/><feFlood flood-opacity="0.161"/><feComposite operator="in" in2="ba"/><feComposite in="SourceGraphic"/></filter><filter id="bb" x="17.841" y="13.209" width="7.289" height="7.289" filterUnits="userSpaceOnUse"><feOffset dy="1" input="SourceAlpha"/><feGaussianBlur stdDeviation="1" result="bc"/><feFlood flood-opacity="0.161" result="bd"/><feComposite operator="out" in="SourceGraphic" in2="bc"/><feComposite operator="in" in="bd"/><feComposite operator="in" in2="SourceGraphic"/></filter></defs><g transform="translate(3 2)"><g transform="translate(0 4.258)"><g data-type="innerShadowGroup"><g transform="matrix(1, 0, 0, 1, -3, -6.26)" filter="url(#b)"><path d="M4.219,0A4.219,4.219,0,0,0,0,4.219V31.2a1.055,1.055,0,0,0,1.8.744L7.819,25.93a2.109,2.109,0,0,1,1.492-.618H29.531a4.219,4.219,0,0,0,4.219-4.219V4.219A4.219,4.219,0,0,0,29.531,0Z" transform="translate(3 6.26)" fill-rule="evenodd" fill="url(#a)"/></g><g transform="matrix(1, 0, 0, 1, -3, -6.26)" filter="url(#d)"><path d="M4.219,0A4.219,4.219,0,0,0,0,4.219V31.2a1.055,1.055,0,0,0,1.8.744L7.819,25.93a2.109,2.109,0,0,1,1.492-.618H29.531a4.219,4.219,0,0,0,4.219-4.219V4.219A4.219,4.219,0,0,0,29.531,0Z" transform="translate(3 6.26)" fill="#fff" fill-rule="evenodd"/></g></g></g><g transform="translate(7.209)"><g data-type="innerShadowGroup"><g transform="matrix(1, 0, 0, 1, -10.21, -2)" filter="url(#g)"><path d="M19.489,5.068H15.945V2.813H14.656V5.069H6.924V2.813H5.635V5.069H2.092a.967.967,0,0,0-.967.967V19.567a.967.967,0,0,0,.967.967h17.4a.967.967,0,0,0,.967-.967V6.035a.967.967,0,0,0-.967-.967Zm-.322,14.176H2.414V6.357H5.635V7.968H6.924V6.357h7.732V7.968h1.289V6.357h3.222Z" transform="translate(9.08 -0.81)" fill="#fff"/></g><g transform="matrix(1, 0, 0, 1, -10.21, -2)" filter="url(#i)"><path d="M19.489,5.068H15.945V2.813H14.656V5.069H6.924V2.813H5.635V5.069H2.092a.967.967,0,0,0-.967.967V19.567a.967.967,0,0,0,.967.967h17.4a.967.967,0,0,0,.967-.967V6.035a.967.967,0,0,0-.967-.967Zm-.322,14.176H2.414V6.357H5.635V7.968H6.924V6.357h7.732V7.968h1.289V6.357h3.222Z" transform="translate(9.08 -0.81)" fill="#fff"/></g></g><g data-type="innerShadowGroup"><g transform="matrix(1, 0, 0, 1, -10.21, -2)" filter="url(#l)"><path d="M7.875,15.75H9.164v1.289H7.875Z" transform="translate(6.2 -6.34)" fill="#1dbe43"/></g><g transform="matrix(1, 0, 0, 1, -10.21, -2)" filter="url(#n)"><path d="M7.875,15.75H9.164v1.289H7.875Z" transform="translate(6.2 -6.34)" fill="#fff"/></g></g><g data-type="innerShadowGroup"><g transform="matrix(1, 0, 0, 1, -10.21, -2)" filter="url(#q)"><path d="M14.063,15.75h1.289v1.289H14.063Z" transform="translate(3.56 -6.34)" fill="#1dbe43"/></g><g transform="matrix(1, 0, 0, 1, -10.21, -2)" filter="url(#s)"><path d="M14.063,15.75h1.289v1.289H14.063Z" transform="translate(3.56 -6.34)" fill="#fff"/></g></g><g data-type="innerShadowGroup"><g transform="matrix(1, 0, 0, 1, -10.21, -2)" filter="url(#v)"><path d="M19.688,15.75h1.289v1.289H19.688Z" transform="translate(1.15 -6.34)" fill="#1dbe43"/></g><g transform="matrix(1, 0, 0, 1, -10.21, -2)" filter="url(#x)"><path d="M19.688,15.75h1.289v1.289H19.688Z" transform="translate(1.15 -6.34)" fill="#fff"/></g></g><path d="M25.875,15.75h1.289v1.289H25.875Z" transform="translate(-11.699 -8.34)" fill="#fff"/><g data-type="innerShadowGroup"><g transform="matrix(1, 0, 0, 1, -10.21, -2)" filter="url(#aa)"><path d="M7.875,20.813H9.164V22.1H7.875Z" transform="translate(6.2 -8.5)" fill="#1dbe43"/></g><g transform="matrix(1, 0, 0, 1, -10.21, -2)" filter="url(#ac)"><path d="M7.875,20.813H9.164V22.1H7.875Z" transform="translate(6.2 -8.5)" fill="#fff"/></g></g><g data-type="innerShadowGroup"><g transform="matrix(1, 0, 0, 1, -10.21, -2)" filter="url(#af)"><path d="M14.063,20.813h1.289V22.1H14.063Z" transform="translate(3.56 -8.5)" fill="#1dbe43"/></g><g transform="matrix(1, 0, 0, 1, -10.21, -2)" filter="url(#ah)"><path d="M14.063,20.813h1.289V22.1H14.063Z" transform="translate(3.56 -8.5)" fill="#fff"/></g></g><g data-type="innerShadowGroup"><g transform="matrix(1, 0, 0, 1, -10.21, -2)" filter="url(#ak)"><path d="M19.688,20.813h1.289V22.1H19.688Z" transform="translate(1.15 -8.5)" fill="#1dbe43"/></g><g transform="matrix(1, 0, 0, 1, -10.21, -2)" filter="url(#am)"><path d="M19.688,20.813h1.289V22.1H19.688Z" transform="translate(1.15 -8.5)" fill="#fff"/></g></g><path d="M25.875,20.813h1.289V22.1H25.875Z" transform="translate(-11.699 -10.503)" fill="#fff"/><g data-type="innerShadowGroup"><g transform="matrix(1, 0, 0, 1, -10.21, -2)" filter="url(#ap)"><path d="M7.875,25.875H9.164v1.289H7.875Z" transform="translate(6.2 -10.67)" fill="#1dbe43"/></g><g transform="matrix(1, 0, 0, 1, -10.21, -2)" filter="url(#ar)"><path d="M7.875,25.875H9.164v1.289H7.875Z" transform="translate(6.2 -10.67)" fill="#fff"/></g></g><g data-type="innerShadowGroup"><g transform="matrix(1, 0, 0, 1, -10.21, -2)" filter="url(#au)"><path d="M14.063,25.875h1.289v1.289H14.063Z" transform="translate(3.56 -10.67)" fill="#1dbe43"/></g><g transform="matrix(1, 0, 0, 1, -10.21, -2)" filter="url(#aw)"><path d="M14.063,25.875h1.289v1.289H14.063Z" transform="translate(3.56 -10.67)" fill="#fff"/></g></g><g data-type="innerShadowGroup"><g transform="matrix(1, 0, 0, 1, -10.21, -2)" filter="url(#az)"><path d="M19.688,25.875h1.289v1.289H19.688Z" transform="translate(1.15 -10.67)" fill="#1dbe43"/></g><g transform="matrix(1, 0, 0, 1, -10.21, -2)" filter="url(#bb)"><path d="M19.688,25.875h1.289v1.289H19.688Z" transform="translate(1.15 -10.67)" fill="#fff"/></g></g><path d="M25.875,25.875h1.289v1.289H25.875Z" transform="translate(-11.699 -12.666)" fill="#fff"/></g></g></svg>